<svg xmlns="http://www.w3.org/2000/svg" height="800" width="1200" viewBox="-41.84346 -19.86775 362.64332 119.2065"><path d="M172.6643 78.7021c-7.5199-1.612-13.6638-5.8976-16.3669-11.4162-1.1678-2.3843-1.3502-3.353-1.3517-7.1767-.002-5.4904 1.1334-8.2772 4.7601-11.6822 3.4492-3.2383 7.8783-5.2065 18.986-8.4371 13.214-3.8433 15.3114-4.939 15.3997-8.0462.061-2.1423-1.3153-3.9372-3.9533-5.156-3.2967-1.5232-10.755-1.5237-13.5882-.001-2.7808 1.4946-4.2304 3.2278-4.8977 5.8559l-.5781 2.2768-6.8397-.0773c-3.7618-.0426-6.9825-.232-7.157-.4209-.6131-.6636.5895-6.7563 1.8396-9.3197 2.4628-5.0503 5.5713-7.6178 11.8046-9.7503 5.121-1.752 16.1699-2.2408 21.8892-.9684 7.5916 1.689 13.0443 5.541 15.4074 10.8842 1.7785 4.0217 2.3386 10.3888 2.044 23.2359-.1868 8.1447-.4707 11.8953-1.0625 14.0348-3.0738 11.1141-12.508 17.0298-27.0029 16.932-3.266-.022-7.4656-.3674-9.3326-.7677zm12.7816-11.7056c3.0758-.9135 6.1729-3.5352 7.5593-6.3991.8456-1.7467 1.1194-3.3954 1.305-7.8572.1291-3.1057.1458-5.6467.037-5.6467-1.2806 0-17.8264 5.2678-19.3508 6.1608-2.7873 1.633-4.0948 3.8794-4.0948 7.0357 0 2.2633.1903 2.7109 1.865 4.3856 1.0258 1.0257 2.6282 2.1083 3.561 2.4056 2.4604.7844 6.3122.7486 9.1183-.0847zm75.1795 11.7747c-2.961-.8139-5.7559-2.6386-7.4564-4.8681-2.7012-3.5415-2.6997-3.5195-2.6997-39.7012V.8377l5.3684.1663c4.488.139 5.5902.332 6.7198 1.1764 2.0534 1.535 3.0416 3.9693 3.478 8.5674l.3964 4.1748 6.2623.1375 6.2622.1375-.001 3.055c-.0014 6.0067-2.8332 8.6809-9.2082 8.6953l-3.5609.0081v37.6758l1.1746 1.2673c.646.697 1.9912 1.4206 2.9894 1.6078 1.8027.3382 6.3222.0045 7.8437-.5796.709-.272.7797.3207.6557 5.5056l-.1389 5.8105-2.9469.6119c-3.8199.793-12.1147.747-15.1385-.0841zm-119.3626-.96c-2.432-.8671-4.1517-2.4712-5.2874-4.9319-.8336-1.8062-.9077-3.5688-.9183-21.8565-.0127-21.887-.0288-22.0133-3.0954-24.2623-2.1005-1.5404-7.4969-1.7114-10.3543-.3281-3.8506 1.864-3.7508 1.1195-3.7508 27.98v23.624h-15.7171V54.191c0-26.7942.1175-25.886-3.5798-27.6757-4.255-2.0598-10.0268-1.0908-12.348 2.073-.991 1.3509-1.0202 1.9877-1.1348 24.8034-.0646 12.8793-.1199 23.6932-.1228 24.031-.0039.4652-1.9052.6139-7.8542.6139h-7.8491l.001-22.9012c.001-23.5606.291-28.3794 1.8956-31.5169 1.3489-2.6376 4.7974-5.8459 7.8212-7.2764 7.3956-3.4986 21.9117-3.553 28.7223-.1075l1.868.945 3.1526-1.2614c4.3259-1.7305 7.3248-2.2234 13.5297-2.2234 9.5228 0 15.0498 1.79 19.6478 6.3634 4.7386 4.7132 4.5849 3.6467 4.7628 33.052l.1538 25.4175-3.8272-.0215c-2.105-.0119-4.677-.3246-5.7156-.695zm74.3342-25.0023c0-15.0354.2018-26.2965.4995-27.8733 1-5.2968 4.427-8.9405 9.847-10.4696 3.2424-.9148 11.0294-1.0194 16.4016-.2204l3.7037.5509v11.6438l-1.5962-.356c-.878-.196-3.2935-.3562-5.368-.3562-3.0614 0-4.0325.194-5.1571 1.0297-2.633 1.9568-2.5984 1.5932-2.6062 27.3347l-.0072 23.944H215.597V52.8089z" fill="#494b57"/><path d="M22.8175 78.809c-6.8491-1.3575-10.4632-3.1608-14.741-7.3552-3.7201-3.6476-6.2121-8.3834-7.4002-14.0633-1.1136-5.3238-.7764-31.7631.4597-36.047 2.1365-7.404 6.7125-13.5274 12.595-16.8542C18.985 1.518 23.5861.3336 30.9216.0644c7.2757-.267 12.0761.2815 16.814 1.9211C59.1834 5.9472 65.8794 15.781 64.32 26.3411c-1.51 10.227-8.3953 16.229-23.458 20.4489-8.8697 2.4849-17.7103 5.2274-18.9884 5.8904-3.4204 1.7746-5.1558 4.3896-4.5223 6.8148 1.1504 4.4045 5.2245 6.7652 12.2996 7.1268 8.9165.4558 13.8542-2.482 15.9-9.4598l.432-1.4734 8.4442-.1345 8.4443-.1344-.2856 1.3623c-1.4711 7.0182-3.691 11.421-7.5621 14.9987-5.3199 4.9165-12.0377 7.1684-22.383 7.503-4.2596.1379-7.5297-.0202-9.8232-.4749zm1.534-39.8486C36.8906 35.2027 38.6 34.645 40.499 33.693c5.2164-2.615 7.443-5.9386 6.9806-10.4194-.4152-4.0231-2.5272-6.9415-6.4894-8.967-3.5774-1.8288-10.6157-2.1376-14.5778-.6395-4.757 1.7986-8.1185 6.201-9.1994 12.048-.5822 3.1495-.7378 14.1357-.2077 14.6658.5415.5415 1.2662.4013 7.346-1.4206z" fill="#feb415"/></svg>